<svg width="181" height="28" viewBox="0 0 181 28" fill="none" xmlns="http://www.w3.org/2000/svg">
<path d="M15.312 3.8L13.088 15H10.656L11.968 8.344L7.696 13.816H6.544L4.24 8.28L2.896 15H0.464L2.704 3.8H4.816L7.616 10.776L13.088 3.8H15.312ZM25.8413 6.392L20.1132 15.576C19.4946 16.5787 18.8919 17.272 18.3052 17.656C17.7293 18.04 17.0199 18.232 16.1773 18.232C15.7293 18.232 15.2919 18.1627 14.8652 18.024C14.4279 17.8853 14.0866 17.704 13.8412 17.48L14.9933 15.688C15.3772 16.04 15.8359 16.216 16.3693 16.216C16.6892 16.216 16.9666 16.136 17.2012 15.976C17.4359 15.816 17.6759 15.544 17.9213 15.16L18.0013 15.016L16.0173 6.392H18.5133L19.7933 12.248L23.3772 6.392H25.8413ZM29.0198 7.416C29.3931 7.01067 29.8411 6.71733 30.3637 6.536C30.8971 6.35467 31.5211 6.264 32.2358 6.264L31.7877 8.568C31.4891 8.54667 31.2971 8.536 31.2118 8.536C30.4544 8.536 29.8464 8.72267 29.3878 9.096C28.9398 9.46933 28.6357 10.0507 28.4757 10.84L27.6437 15H25.1477L26.8598 6.392H29.2277L29.0198 7.416ZM41.2417 10.056C41.2417 10.4507 41.1937 10.888 41.0977 11.368H34.5057C34.5911 12.5413 35.3324 13.128 36.7298 13.128C37.1671 13.128 37.5831 13.0587 37.9777 12.92C38.3831 12.7813 38.7351 12.584 39.0338 12.328L40.0737 13.976C39.5938 14.36 39.0444 14.648 38.4257 14.84C37.8071 15.032 37.1564 15.128 36.4738 15.128C35.5884 15.128 34.8098 14.9733 34.1377 14.664C33.4764 14.344 32.9644 13.8907 32.6018 13.304C32.2497 12.7173 32.0737 12.04 32.0737 11.272C32.0737 10.3227 32.2871 9.46933 32.7138 8.712C33.1511 7.944 33.7538 7.34667 34.5217 6.92C35.2897 6.48267 36.1644 6.264 37.1458 6.264C37.9778 6.264 38.6978 6.41867 39.3057 6.728C39.9244 7.03733 40.3991 7.48 40.7297 8.056C41.0711 8.632 41.2417 9.29867 41.2417 10.056ZM37.0338 8.136C36.4471 8.136 35.9511 8.296 35.5457 8.616C35.1404 8.92533 34.8524 9.35733 34.6818 9.912H38.9538C38.9538 9.35733 38.7778 8.92533 38.4257 8.616C38.0844 8.296 37.6204 8.136 37.0338 8.136ZM48.6646 6.264C49.6246 6.264 50.3873 6.52 50.9526 7.032C51.518 7.53333 51.8006 8.25333 51.8006 9.192C51.8006 9.544 51.7633 9.89067 51.6886 10.232L50.7286 15H48.2326L49.1606 10.392C49.2033 10.2107 49.2246 10.0133 49.2246 9.8C49.2246 9.352 49.102 9.01067 48.8566 8.776C48.6113 8.54133 48.2433 8.424 47.7526 8.424C47.1126 8.424 46.5793 8.61067 46.1526 8.984C45.7366 9.34667 45.454 9.896 45.3046 10.632L44.4406 15H41.9446L43.6566 6.392H46.0246L45.8326 7.32C46.6006 6.616 47.5446 6.264 48.6646 6.264ZM56.8791 7.416C57.2525 7.01067 57.7005 6.71733 58.2231 6.536C58.7565 6.35467 59.3805 6.264 60.0951 6.264L59.6471 8.568C59.3485 8.54667 59.1565 8.536 59.0711 8.536C58.3138 8.536 57.7058 8.72267 57.2471 9.096C56.7991 9.46933 56.4951 10.0507 56.3351 10.84L55.5031 15H53.0071L54.7191 6.392H57.0871L56.8791 7.416ZM63.5241 11.96C63.5028 12.0453 63.4921 12.1627 63.4921 12.312C63.4921 12.8667 63.7961 13.144 64.4041 13.144C64.7348 13.144 65.0708 13.0427 65.4121 12.84L65.7801 14.616C65.2255 14.9573 64.5108 15.128 63.6361 15.128C62.8255 15.128 62.1748 14.9147 61.6841 14.488C61.1935 14.0613 60.9481 13.4747 60.9481 12.728C60.9481 12.5147 60.9748 12.264 61.0281 11.976L61.7161 8.504H60.3881L60.7721 6.584H62.1001L62.5161 4.488H65.0121L64.5961 6.584H66.7401L66.3561 8.504H64.2121L63.5241 11.96ZM77.2676 6.392L75.5556 15H73.1876L73.3476 14.152C72.633 14.8027 71.753 15.128 70.7076 15.128C70.0356 15.128 69.417 14.9733 68.8516 14.664C68.2863 14.3547 67.833 13.912 67.4916 13.336C67.161 12.7493 66.9956 12.0613 66.9956 11.272C66.9956 10.3227 67.2036 9.46933 67.6196 8.712C68.0463 7.944 68.6223 7.34667 69.3476 6.92C70.073 6.48267 70.873 6.264 71.7476 6.264C73.0703 6.264 74.0036 6.696 74.5476 7.56L74.7716 6.392H77.2676ZM71.4756 13.064C71.9663 13.064 72.4036 12.9467 72.7876 12.712C73.1716 12.4667 73.4703 12.1307 73.6836 11.704C73.897 11.2773 74.0036 10.7867 74.0036 10.232C74.0036 9.64533 73.8276 9.18133 73.4756 8.84C73.1343 8.49867 72.6543 8.328 72.0356 8.328C71.545 8.328 71.1076 8.45067 70.7236 8.696C70.3396 8.93067 70.041 9.26133 69.8276 9.688C69.6143 10.1147 69.5076 10.6053 69.5076 11.16C69.5076 11.7467 69.6783 12.2107 70.0196 12.552C70.3716 12.8933 70.857 13.064 71.4756 13.064ZM82.4105 15.128C81.5252 15.128 80.7518 14.968 80.0905 14.648C79.4292 14.328 78.9172 13.88 78.5545 13.304C78.2025 12.7173 78.0265 12.04 78.0265 11.272C78.0265 10.3227 78.2505 9.46933 78.6985 8.712C79.1465 7.95467 79.7705 7.35733 80.5705 6.92C81.3705 6.48267 82.2718 6.264 83.2745 6.264C84.1918 6.264 84.9812 6.456 85.6425 6.84C86.3145 7.21333 86.8158 7.74667 87.1465 8.44L85.0345 9.496C84.6612 8.71733 84.0212 8.328 83.1145 8.328C82.6238 8.328 82.1812 8.45067 81.7865 8.696C81.4025 8.93067 81.0985 9.26133 80.8745 9.688C80.6612 10.1147 80.5545 10.6 80.5545 11.144C80.5545 11.7307 80.7305 12.2 81.0825 12.552C81.4345 12.8933 81.9252 13.064 82.5545 13.064C83.4718 13.064 84.1758 12.68 84.6665 11.912L86.5065 13.064C86.0905 13.7147 85.5198 14.2213 84.7945 14.584C84.0798 14.9467 83.2852 15.128 82.4105 15.128ZM97.6582 6.392L95.9462 15H93.5782L93.7382 14.152C93.0236 14.8027 92.1436 15.128 91.0982 15.128C90.4262 15.128 89.8076 14.9733 89.2422 14.664C88.6769 14.3547 88.2236 13.912 87.8823 13.336C87.5516 12.7493 87.3862 12.0613 87.3862 11.272C87.3862 10.3227 87.5942 9.46933 88.0102 8.712C88.4369 7.944 89.0129 7.34667 89.7383 6.92C90.4636 6.48267 91.2636 6.264 92.1382 6.264C93.4609 6.264 94.3942 6.696 94.9382 7.56L95.1622 6.392H97.6582ZM91.8663 13.064C92.3569 13.064 92.7943 12.9467 93.1782 12.712C93.5622 12.4667 93.8609 12.1307 94.0743 11.704C94.2876 11.2773 94.3942 10.7867 94.3942 10.232C94.3942 9.64533 94.2182 9.18133 93.8663 8.84C93.5249 8.49867 93.0449 8.328 92.4262 8.328C91.9356 8.328 91.4983 8.45067 91.1143 8.696C90.7303 8.93067 90.4316 9.26133 90.2183 9.688C90.0049 10.1147 89.8983 10.6053 89.8983 11.16C89.8983 11.7467 90.0689 12.2107 90.4102 12.552C90.7623 12.8933 91.2476 13.064 91.8663 13.064ZM102.129 7.416C102.502 7.01067 102.95 6.71733 103.473 6.536C104.006 6.35467 104.63 6.264 105.345 6.264L104.897 8.568C104.598 8.54667 104.406 8.536 104.321 8.536C103.564 8.536 102.956 8.72267 102.497 9.096C102.049 9.46933 101.745 10.0507 101.585 10.84L100.753 15H98.2571L99.9691 6.392H102.337L102.129 7.416Z" transform="translate(34.6558 2.89803)" fill="#1E2A35"/>
<path d="M106.284 15.128C105.857 15.128 105.505 14.9947 105.228 14.728C104.95 14.4507 104.812 14.104 104.812 13.688C104.812 13.1973 104.972 12.7973 105.292 12.488C105.612 12.1787 106.006 12.024 106.476 12.024C106.902 12.024 107.249 12.1573 107.516 12.424C107.793 12.6907 107.932 13.0373 107.932 13.464C107.932 13.944 107.766 14.344 107.436 14.664C107.116 14.9733 106.732 15.128 106.284 15.128ZM113.77 15.128C112.885 15.128 112.111 14.968 111.45 14.648C110.789 14.328 110.277 13.88 109.914 13.304C109.562 12.7173 109.386 12.04 109.386 11.272C109.386 10.3227 109.61 9.46933 110.058 8.712C110.506 7.95467 111.13 7.35733 111.93 6.92C112.73 6.48267 113.631 6.264 114.634 6.264C115.551 6.264 116.341 6.456 117.002 6.84C117.674 7.21333 118.175 7.74667 118.506 8.44L116.394 9.496C116.021 8.71733 115.381 8.328 114.474 8.328C113.983 8.328 113.541 8.45067 113.146 8.696C112.762 8.93067 112.458 9.26133 112.234 9.688C112.021 10.1147 111.914 10.6 111.914 11.144C111.914 11.7307 112.09 12.2 112.442 12.552C112.794 12.8933 113.285 13.064 113.914 13.064C114.831 13.064 115.535 12.68 116.026 11.912L117.866 13.064C117.45 13.7147 116.879 14.2213 116.154 14.584C115.439 14.9467 114.645 15.128 113.77 15.128ZM123.066 15.128C122.202 15.128 121.439 14.968 120.778 14.648C120.127 14.328 119.62 13.88 119.258 13.304C118.906 12.7173 118.73 12.04 118.73 11.272C118.73 10.3227 118.954 9.46933 119.402 8.712C119.85 7.95467 120.468 7.35733 121.258 6.92C122.047 6.48267 122.938 6.264 123.93 6.264C124.804 6.264 125.567 6.424 126.218 6.744C126.868 7.064 127.37 7.51733 127.722 8.104C128.084 8.68 128.266 9.352 128.266 10.12C128.266 11.0693 128.042 11.9227 127.594 12.68C127.156 13.4373 126.538 14.0347 125.738 14.472C124.948 14.9093 124.058 15.128 123.066 15.128ZM123.226 13.064C123.706 13.064 124.138 12.9467 124.522 12.712C124.906 12.4667 125.204 12.1307 125.418 11.704C125.631 11.2773 125.738 10.7867 125.738 10.232C125.738 9.64533 125.567 9.18133 125.226 8.84C124.884 8.49867 124.404 8.328 123.786 8.328C123.295 8.328 122.858 8.45067 122.474 8.696C122.09 8.93067 121.791 9.26133 121.578 9.688C121.364 10.1147 121.258 10.6053 121.258 11.16C121.258 11.7467 121.428 12.2107 121.77 12.552C122.122 12.8933 122.607 13.064 123.226 13.064ZM141.55 6.264C142.489 6.264 143.236 6.52 143.79 7.032C144.345 7.53333 144.622 8.248 144.622 9.176C144.622 9.51733 144.585 9.86933 144.51 10.232L143.566 15H141.07L141.982 10.408C142.025 10.1947 142.046 9.976 142.046 9.752C142.046 9.31467 141.929 8.984 141.694 8.76C141.47 8.536 141.134 8.424 140.686 8.424C139.481 8.424 138.729 9.144 138.43 10.584L137.55 15H135.054L135.966 10.408C136.009 10.1947 136.03 9.98133 136.03 9.768C136.03 9.33067 135.913 9 135.678 8.776C135.454 8.54133 135.118 8.424 134.67 8.424C133.465 8.424 132.708 9.15467 132.398 10.616L131.534 15H129.038L130.75 6.392H133.118L132.926 7.288C133.673 6.60533 134.574 6.264 135.63 6.264C136.228 6.264 136.756 6.38667 137.214 6.632C137.684 6.86667 138.036 7.21333 138.27 7.672C138.686 7.21333 139.172 6.86667 139.726 6.632C140.281 6.38667 140.889 6.264 141.55 6.264Z" transform="translate(34.6558 2.89803)" fill="#27C79A"/>
<path fill-rule="evenodd" clip-rule="evenodd" d="M7.02806 12.7415C8.83787 3.483 15.7354 0 15.7354 0C15.7354 0 4.90551 3.97 1.28983 5.2765C1.02561 5.3715 0.775613 5.519 0.564338 5.7345C-0.188113 6.5015 -0.188113 7.7455 0.564338 8.5125C0.647181 8.597 0.736887 8.668 0.829534 8.7335L7.02806 12.7415Z" transform="translate(0 2.32628)" fill="#1FA4D4"/>
<path fill-rule="evenodd" clip-rule="evenodd" d="M5.87604 23.7651L13.2501 2.61313L13.2447 2.60663C13.4795 1.91763 13.3339 1.12363 12.7942 0.573127C11.8604 -0.379373 10.7055 0.142627 10.7035 0.143627C-0.336213 4.36213 -2.53768 19.0526 2.72653 24.4206C3.47898 25.1881 4.69859 25.1881 5.45104 24.4206C5.64075 24.2276 5.78192 24.0036 5.87604 23.7651Z" transform="translate(11.1572)" fill="#28C69A"/>
</svg>
